<svg width="512" height="512" viewBox="0 0 512 512" fill="none" xmlns="http://www.w3.org/2000/svg" role="img" aria-labelledby="title desc">
  <title id="title">Meeting Scribe logo mark</title>
  <desc id="desc">A rounded blue square with a speech bubble, waveform, and pen nib accent that does not overlap the waveform bars.</desc>
  <defs>
    <linearGradient id="bg" x1="24" y1="24" x2="488" y2="488" gradientUnits="userSpaceOnUse">
      <stop offset="0" stop-color="#0E7490" />
      <stop offset="1" stop-color="#1D4ED8" />
    </linearGradient>
    <linearGradient id="nib" x1="356" y1="112" x2="500" y2="256" gradientUnits="userSpaceOnUse">
      <stop offset="0" stop-color="#14B8A6" />
      <stop offset="1" stop-color="#0EA5E9" />
    </linearGradient>
  </defs>

  <circle cx="256" cy="256" r="210" fill="url(#bg)" />

  <path fill="#FFFFFF" d="M157 167H355C375 167 391 183 391 203V291C391 311 375 327 355 327H273L218 374C211 381 199 376 199 366V327H157C137 327 121 311 121 291V203C121 183 137 167 157 167Z" />

  <rect x="173" y="234" width="22" height="60" rx="10" fill="#1E3A8A" />
  <rect x="211" y="215" width="22" height="98" rx="10" fill="#1E3A8A" />
  <rect x="249" y="227" width="22" height="74" rx="10" fill="#1E3A8A" />
  <rect x="287" y="210" width="22" height="107" rx="10" fill="#1E3A8A" />
  <rect x="325" y="239" width="22" height="54" rx="10" fill="#1E3A8A" />

  <path fill="url(#nib)" d="M430 112L500 182L426 256L356 186L430 112Z" />
  <path fill="#0C97BC" d="M465 147L500 182L426 256L391 221L465 147Z" opacity="0.55" />
  <circle cx="429" cy="181" r="12" fill="#FFFFFF" />
</svg>
